<svg xmlns="http://www.w3.org/2000/svg" viewBox="0 0 500 500"><g id="freepik--background-complete--inject-2"><rect x="53.37" y="65.7" width="60.49" height="73.37" style="fill:#ebebeb"></rect><rect x="60.28" y="72.39" width="46.66" height="59.98" style="fill:#fff"></rect><rect x="60.28" y="72.39" width="1.82" height="59.98" style="fill:#dbdbdb"></rect><rect x="113.86" y="65.7" width="1.82" height="73.37" style="fill:#dbdbdb"></rect><rect x="75.92" y="80.66" width="11" height="32.78" style="fill:#dbdbdb"></rect><rect x="71.12" y="102.98" width="29.34" height="16.06" style="fill:none;stroke:#ebebeb;stroke-miterlimit:10"></rect><rect x="221.12" y="65.7" width="60.49" height="73.37" style="fill:#ebebeb"></rect><rect x="228.03" y="72.39" width="46.66" height="59.98" style="fill:#fff"></rect><rect x="228.03" y="72.39" width="1.82" height="59.98" style="fill:#dbdbdb"></rect><rect x="281.61" y="65.7" width="1.82" height="73.37" style="fill:#dbdbdb"></rect><rect x="243.67" y="80.66" width="11" height="32.78" style="fill:#dbdbdb"></rect><rect x="238.87" y="102.98" width="29.34" height="16.06" style="fill:none;stroke:#ebebeb;stroke-miterlimit:10"></rect><rect x="137.24" y="65.7" width="60.49" height="73.37" style="fill:#ebebeb"></rect><rect x="144.16" y="72.39" width="46.66" height="59.98" style="fill:#fff"></rect><rect x="144.16" y="72.39" width="1.82" height="59.98" style="fill:#dbdbdb"></rect><rect x="197.73" y="65.7" width="1.82" height="73.37" style="fill:#dbdbdb"></rect><rect x="162.97" y="87.9" width="9.43" height="23.83" style="fill:#ebebeb"></rect><rect x="157" y="102.38" width="25.32" height="16.43" style="fill:none;stroke:#dbdbdb;stroke-miterlimit:10"></rect><path d="M95.6,376.89c0-1.92-.11-3.82-.13-5.7l.28.28c-4.54,0-9.09.16-13.63.17l-13.63.06.51-.51,0,11.52-.46-.46c2.24,0,4.48,0,6.74.05l6.77.12,13.75.29ZM82.24,383l-6.86.12c-2.29.05-4.59,0-6.89.05H68v-.46L68,371.19v-.52h.52l13.63.07c4.54,0,9.09.11,13.63.17H96v.28c0,1.95-.09,3.89-.13,5.82l-.15,5.7Z" style="fill:#ebebeb"></path><path d="M377.7,213.61c-.05-1.91-.12-3.81-.14-5.69l.28.28c-4.54.05-9.08.16-13.63.16l-13.63.07.52-.51L351,219.43l-.46-.45c2.25,0,4.49,0,6.74.05l6.78.12,13.74.28Zm-13.37,6.11-6.85.12c-2.3,0-4.6,0-6.9,0h-.45v-.47l-.05-11.51v-.52h.51l13.63.07c4.55,0,9.09.11,13.63.16h.29v.28c0,2-.09,3.89-.14,5.82l-.15,5.69Z" style="fill:#ebebeb"></path><path d="M80.4,391.41c-.05-1.92-.12-3.81-.14-5.7l.28.28c-4.54.06-9.08.17-13.63.17l-13.63.07.52-.52-.06,11.52-.46-.46c2.25,0,4.49,0,6.74.06l6.77.11,13.75.29ZM67,397.52l-6.86.11c-2.29.05-4.59,0-6.89.06h-.46v-.46l0-11.52v-.51h.52l13.63.06c4.55,0,9.09.12,13.63.17h.29v.28c0,2-.09,3.9-.13,5.82l-.15,5.7Z" style="fill:#ebebeb"></path><path d="M110.81,391.41c0-1.92-.12-3.81-.14-5.7l.29.28c-4.55.06-9.09.17-13.63.17l-13.63.07.51-.52-.06,11.52-.45-.46c2.24,0,4.48,0,6.73.06l6.78.11,13.75.29Zm-13.37,6.11-6.85.11c-2.29.05-4.6,0-6.89.06h-.46v-.46l-.06-11.52v-.51h.52l13.63.06c4.54,0,9.08.12,13.63.17h.28v.28c0,2-.09,3.9-.14,5.82l-.14,5.7Z" style="fill:#ebebeb"></path><path d="M431.6,391.41c-.05-1.92-.12-3.81-.14-5.7l.28.28c-4.54.06-9.08.17-13.63.17l-13.63.07.52-.52-.06,11.52-.46-.46c2.25,0,4.49,0,6.74.06l6.78.11,13.74.29Zm-13.37,6.11-6.85.11c-2.3.05-4.6,0-6.9.06H404v-.46L404,385.71v-.51h.51l13.63.06c4.55,0,9.09.12,13.63.17H432v.28c0,2-.09,3.9-.14,5.82l-.15,5.7Z" style="fill:#ebebeb"></path><path d="M431.6,57.42c-.05-1.92-.12-3.82-.14-5.7l.28.28c-4.54,0-9.08.16-13.63.17l-13.63.06.52-.51-.06,11.52-.46-.46c2.25,0,4.49,0,6.74.06L418,63l13.74.29Zm-13.37,6.1-6.85.12c-2.3,0-4.6,0-6.9.06H404v-.46L404,51.72V51.2h.51l13.63.07c4.55,0,9.09.11,13.63.17H432v.28c0,2-.09,3.9-.14,5.82l-.15,5.7Z" style="fill:#ebebeb"></path><path d="M446.81,71.94c-.05-1.91-.12-3.81-.14-5.7l.28.28c-4.54.06-9.09.17-13.63.17l-13.63.07.51-.52-.05,11.52-.46-.46c2.25,0,4.49,0,6.74.06l6.77.12,13.75.28Zm-13.37,6.11-6.86.12c-2.29,0-4.59,0-6.89,0h-.46v-.47l-.05-11.52v-.51h.52l13.63.06c4.54,0,9.09.12,13.63.17h.29v.27c0,2-.09,3.9-.13,5.82l-.15,5.7Z" style="fill:#ebebeb"></path><path d="M80.4,57.43c-.05-1.92-.12-3.81-.14-5.7l.28.28c-4.54.05-9.08.17-13.63.17l-13.63.06.52-.51-.06,11.52-.46-.46c2.25,0,4.49,0,6.74.06l6.77.11,13.75.29ZM67,63.54l-6.86.11c-2.29.05-4.59,0-6.89.06h-.46v-.46l0-11.52v-.52h.52l13.63.06c4.55,0,9.09.12,13.63.17h.29v.28c0,2-.09,3.9-.13,5.82l-.15,5.7Z" style="fill:#ebebeb"></path><path d="M196.57,321.64c.05,1.92.12,3.82.14,5.7l-.28-.28c4.54-.05,9.09-.16,13.63-.17l13.63-.06-.52.51.06-11.52.46.46c-2.25,0-4.49,0-6.74-.06l-6.77-.11-13.75-.29Zm13.37-6.1,6.86-.12c2.29-.05,4.59,0,6.89-.06h.46v.46l0,11.52v.52h-.52l-13.63-.07c-4.54,0-9.09-.11-13.63-.17h-.29v-.28c0-1.95.09-3.9.13-5.82l.15-5.7Z" style="fill:#ebebeb"></path><path d="M211.78,307.12c.05,1.91.12,3.81.14,5.7l-.28-.28c4.54-.06,9.08-.17,13.63-.17l13.63-.07-.52.52.06-11.52.46.46c-2.25,0-4.49,0-6.74-.06l-6.78-.12-13.74-.28ZM225.15,301l6.85-.12c2.3,0,4.6,0,6.9-.05h.45v.47l.06,11.52v.51h-.51l-13.63-.06c-4.55,0-9.09-.12-13.63-.17h-.29v-.27c0-2,.09-3.9.14-5.82l.15-5.7Z" style="fill:#ebebeb"></path></g><g id="freepik--Lamp--inject-2"><rect x="405.92" y="159.42" width="8.02" height="285.31" style="fill:#455a64"></rect><rect x="405.92" y="159.42" width="8.02" height="40.61" style="fill:#263238"></rect><polygon points="452.36 182.94 367.49 182.94 373.66 162.68 373.88 161.95 391.82 102.98 428.02 102.98 445.98 161.97 445.98 161.98 446.18 162.65 452.36 182.94" style="fill:#FFC727"></polygon><path d="M394.83,116.61a.57.57,0,0,1-.57.57.56.56,0,0,1-.57-.57.57.57,0,0,1,.57-.57A.58.58,0,0,1,394.83,116.61Zm9.88-.57a.57.57,0,0,0-.57.57.56.56,0,0,0,.57.57.57.57,0,0,0,.57-.57A.58.58,0,0,0,404.71,116Zm10.45,0a.57.57,0,0,0-.57.57.56.56,0,0,0,.57.57.57.57,0,0,0,.57-.57A.58.58,0,0,0,415.16,116Zm10.45,0a.57.57,0,0,0-.57.57.56.56,0,0,0,.57.57.57.57,0,0,0,.57-.57A.58.58,0,0,0,425.61,116Zm-26.13-7.32a.58.58,0,0,0-.57.57.57.57,0,0,0,.57.57.56.56,0,0,0,.57-.57A.57.57,0,0,0,399.48,108.72Zm10.45,0a.58.58,0,0,0-.57.57.57.57,0,0,0,.57.57.56.56,0,0,0,.57-.57A.57.57,0,0,0,409.93,108.72Zm10.45,0a.58.58,0,0,0-.57.57.57.57,0,0,0,.57.57.56.56,0,0,0,.57-.57A.57.57,0,0,0,420.38,108.72Zm-36.57,22.51a.58.58,0,1,0,.57.58A.58.58,0,0,0,383.81,131.23Zm10.45,0a.58.58,0,1,0,.57.58A.58.58,0,0,0,394.26,131.23Zm10.45,0a.58.58,0,1,0,.57.58A.58.58,0,0,0,404.71,131.23Zm10.45,0a.58.58,0,1,0,.57.58A.58.58,0,0,0,415.16,131.23Zm10.45,0a.58.58,0,1,0,.57.58A.58.58,0,0,0,425.61,131.23Zm10.45,0a.58.58,0,1,0,.57.58A.58.58,0,0,0,436.06,131.23Zm-47-7.31a.57.57,0,0,0-.57.57.58.58,0,0,0,.57.57.57.57,0,0,0,.57-.57A.56.56,0,0,0,389,123.92Zm10.45,0a.57.57,0,0,0-.57.57.58.58,0,0,0,.57.57.57.57,0,0,0,.57-.57A.56.56,0,0,0,399.48,123.92Zm10.45,0a.57.57,0,0,0-.57.57.58.58,0,0,0,.57.57.57.57,0,0,0,.57-.57A.56.56,0,0,0,409.93,123.92Zm10.45,0a.57.57,0,0,0-.57.57.58.58,0,0,0,.57.57.57.57,0,0,0,.57-.57A.56.56,0,0,0,420.38,123.92Zm10.45,0a.57.57,0,0,0-.57.57.58.58,0,0,0,.57.57.57.57,0,0,0,.57-.57A.56.56,0,0,0,430.83,123.92Zm-47,22.51a.57.57,0,0,0-.57.57.56.56,0,0,0,.57.57.57.57,0,0,0,.57-.57A.58.58,0,0,0,383.81,146.43Zm10.45,0a.57.57,0,0,0-.57.57.56.56,0,0,0,.57.57.57.57,0,0,0,.57-.57A.58.58,0,0,0,394.26,146.43Zm10.45,0a.57.57,0,0,0-.57.57.56.56,0,0,0,.57.57.57.57,0,0,0,.57-.57A.58.58,0,0,0,404.71,146.43Zm10.45,0a.57.57,0,0,0-.57.57.56.56,0,0,0,.57.57.57.57,0,0,0,.57-.57A.58.58,0,0,0,415.16,146.43Zm10.45,0a.57.57,0,0,0-.57.57.56.56,0,0,0,.57.57.57.57,0,0,0,.57-.57A.58.58,0,0,0,425.61,146.43Zm10.45,0a.57.57,0,0,0-.57.57.56.56,0,0,0,.57.57.57.57,0,0,0,.57-.57A.58.58,0,0,0,436.06,146.43Zm-47-7.32a.58.58,0,0,0-.57.57.57.57,0,0,0,.57.57.56.56,0,0,0,.57-.57A.57.57,0,0,0,389,139.11Zm10.45,0a.58.58,0,0,0-.57.57.57.57,0,0,0,.57.57.56.56,0,0,0,.57-.57A.57.57,0,0,0,399.48,139.11Zm10.45,0a.58.58,0,0,0-.57.57.57.57,0,0,0,.57.57.56.56,0,0,0,.57-.57A.57.57,0,0,0,409.93,139.11Zm10.45,0a.58.58,0,0,0-.57.57.57.57,0,0,0,.57.57.56.56,0,0,0,.57-.57A.57.57,0,0,0,420.38,139.11Zm10.45,0a.58.58,0,0,0-.57.57.57.57,0,0,0,.57.57.56.56,0,0,0,.57-.57A.57.57,0,0,0,430.83,139.11ZM373.88,162l-.22.72a.53.53,0,0,0,.27-.48A.52.52,0,0,0,373.88,162Zm9.93-.32a.56.56,0,0,0-.57.57.57.57,0,0,0,.57.57.58.58,0,0,0,.57-.57A.57.57,0,0,0,383.81,161.63Zm10.45,0a.56.56,0,0,0-.57.57.57.57,0,0,0,.57.57.58.58,0,0,0,.57-.57A.57.57,0,0,0,394.26,161.63Zm10.45,0a.56.56,0,0,0-.57.57.57.57,0,0,0,.57.57.58.58,0,0,0,.57-.57A.57.57,0,0,0,404.71,161.63Zm10.45,0a.56.56,0,0,0-.57.57.57.57,0,0,0,.57.57.58.58,0,0,0,.57-.57A.57.57,0,0,0,415.16,161.63Zm10.45,0a.56.56,0,0,0-.57.57.57.57,0,0,0,.57.57.58.58,0,0,0,.57-.57A.57.57,0,0,0,425.61,161.63Zm10.45,0a.56.56,0,0,0-.57.57.57.57,0,0,0,.57.57.58.58,0,0,0,.57-.57A.57.57,0,0,0,436.06,161.63ZM446,162a.49.49,0,0,0,0,.21.52.52,0,0,0,.24.46Zm-67.4-7.67a.57.57,0,0,0-.57.57.58.58,0,0,0,.57.57.57.57,0,0,0,.57-.57A.56.56,0,0,0,378.58,154.31Zm10.45,0a.57.57,0,0,0-.57.57.58.58,0,0,0,.57.57.57.57,0,0,0,.57-.57A.56.56,0,0,0,389,154.31Zm10.45,0a.57.57,0,0,0-.57.57.58.58,0,0,0,.57.57.57.57,0,0,0,.57-.57A.56.56,0,0,0,399.48,154.31Zm10.45,0a.57.57,0,0,0-.57.57.58.58,0,0,0,.57.57.57.57,0,0,0,.57-.57A.56.56,0,0,0,409.93,154.31Zm10.45,0a.57.57,0,0,0-.57.57.58.58,0,0,0,.57.57.57.57,0,0,0,.57-.57A.56.56,0,0,0,420.38,154.31Zm10.45,0a.57.57,0,0,0-.57.57.58.58,0,0,0,.57.57.57.57,0,0,0,.57-.57A.56.56,0,0,0,430.83,154.31Zm10.45,0a.57.57,0,0,0-.57.57.58.58,0,0,0,.57.57.57.57,0,0,0,.57-.57A.56.56,0,0,0,441.28,154.31Zm-67.92,22.51a.57.57,0,0,0-.57.57.56.56,0,0,0,.57.57.57.57,0,0,0,.57-.57A.58.58,0,0,0,373.36,176.82Zm10.45,0a.57.57,0,0,0-.57.57.56.56,0,0,0,.57.57.57.57,0,0,0,.57-.57A.58.58,0,0,0,383.81,176.82Zm10.45,0a.57.57,0,0,0-.57.57.56.56,0,0,0,.57.57.57.57,0,0,0,.57-.57A.58.58,0,0,0,394.26,176.82Zm10.45,0a.57.57,0,0,0-.57.57.56.56,0,0,0,.57.57.57.57,0,0,0,.57-.57A.58.58,0,0,0,404.71,176.82Zm10.45,0a.57.57,0,0,0-.57.57.56.56,0,0,0,.57.57.57.57,0,0,0,.57-.57A.58.58,0,0,0,415.16,176.82Zm10.45,0a.57.57,0,0,0-.57.57.56.56,0,0,0,.57.57.57.57,0,0,0,.57-.57A.58.58,0,0,0,425.61,176.82Zm10.45,0a.57.57,0,0,0-.57.57.56.56,0,0,0,.57.57.57.57,0,0,0,.57-.57A.58.58,0,0,0,436.06,176.82Zm10.45,0a.57.57,0,0,0-.57.57.56.56,0,0,0,.57.57.57.57,0,0,0,.57-.57A.58.58,0,0,0,446.51,176.82Zm-67.93-7.32a.58.58,0,0,0-.57.57.57.57,0,0,0,.57.57.56.56,0,0,0,.57-.57A.57.57,0,0,0,378.58,169.5Zm10.45,0a.58.58,0,0,0-.57.57.57.57,0,0,0,.57.57.56.56,0,0,0,.57-.57A.57.57,0,0,0,389,169.5Zm10.45,0a.58.58,0,0,0-.57.57.57.57,0,0,0,.57.57.56.56,0,0,0,.57-.57A.57.57,0,0,0,399.48,169.5Zm10.45,0a.58.58,0,0,0-.57.57.57.57,0,0,0,.57.57.56.56,0,0,0,.57-.57A.57.57,0,0,0,409.93,169.5Zm10.45,0a.58.58,0,0,0-.57.57.57.57,0,0,0,.57.57.56.56,0,0,0,.57-.57A.57.57,0,0,0,420.38,169.5Zm10.45,0a.58.58,0,0,0-.57.57.57.57,0,0,0,.57.57.56.56,0,0,0,.57-.57A.57.57,0,0,0,430.83,169.5Zm10.45,0a.58.58,0,0,0-.57.57.57.57,0,0,0,.57.57.56.56,0,0,0,.57-.57A.57.57,0,0,0,441.28,169.5Z" style="fill:#fff"></path></g><g id="freepik--Plant--inject-2"><path d="M164.11,310.39c-4-4-9.26-8.74-15.43-7-5.81,1.6-8,7.95-9.08,13.23-1.34,6.81-2.38,13.69-3.46,20.54S134,351,133,357.93q-.84,5.86-1.66,11.74c-.27,2-.55,3.92-.82,5.88s-.59,3.84-.69,5.78c0,.61.93.7,1.07.11.75-3.26,1.06-6.66,1.54-10s1-6.67,1.45-10q1.46-9.93,3-19.86T140,321.75c.89-5.61,1.31-12.57,6.29-16.27a9.59,9.59,0,0,1,9.29-.87c3.27,1.24,5.89,3.59,8.45,5.9C164.08,310.59,164.19,310.47,164.11,310.39Z" style="fill:#263238"></path><path d="M158.58,306.35s-8.25-3-12.33,3,.8,21.35,38.39,30a106,106,0,0,0-9-34C167.54,287.84,153.18,294.5,158.58,306.35Z" style="fill:#FFC727"></path><path d="M182.48,336.89a28.52,28.52,0,0,0-1.89-3.05c-.63-1-1.26-1.93-1.9-2.89-.49-.72-1-1.44-1.48-2.15a5,5,0,0,0,.07-.54c.05-.33.09-.65.13-1,.09-.7.2-1.41.3-2.11s.22-1.4.36-2.1a10.26,10.26,0,0,1,.49-2.21c.05-.11-.15-.16-.17,0a7.67,7.67,0,0,1-.33,1.25c-.09.32-.17.63-.25.95-.19.71-.36,1.43-.52,2.15s-.27,1.32-.39,2c-.05.32-.1.64-.14,1-.67-1-1.36-1.91-2.06-2.84-2-2.62-4.11-5.15-6.29-7.62,0,0,0,0,0-.07.2-4,.1-7.86,1-11.75,0-.1-.14-.16-.16-.06A40.35,40.35,0,0,0,167.85,317c-.78-.87-1.57-1.74-2.38-2.6-1.83-2-3.69-3.91-5.6-5.81-.07-.07-.2,0-.12.12,3.17,3.41,6.18,7,9.11,10.58a63.1,63.1,0,0,0-6.88.25c-2.54.19-5.08.52-7.61.87-.11,0-.07.18,0,.16a74.42,74.42,0,0,1,7.61-.68c2.45-.1,4.89,0,7.34,0,1.58,2,3.15,3.94,4.69,5.94h-.35c-.57,0-1.15,0-1.73,0-1.14,0-2.28.1-3.42.2a50.51,50.51,0,0,0-6.94,1,.08.08,0,1,0,0,.16c2.31-.26,4.62-.48,7-.56,1.11,0,2.21,0,3.32,0h1.73a2.27,2.27,0,0,0,1-.09l3,3.95c.79,1.05,1.58,2.1,2.35,3.17s1.51,2.29,2.39,3.31C182.41,337.07,182.52,337,182.48,336.89Z" style="fill:#263238"></path><path d="M162.18,314.89a24.56,24.56,0,0,0-4-.2c-1.34,0-2.68,0-4,.09-.13,0-.12.17,0,.16,1.36-.09,2.71-.12,4.08-.1s2.63.15,4,.11A0,0,0,0,0,162.18,314.89Z" style="fill:#263238"></path><path d="M174,317.92a37.84,37.84,0,0,1,.59-3.84.09.09,0,1,0-.17,0c-.19,1.27-.43,2.52-.62,3.79-.09.63-.18,1.26-.26,1.9a9,9,0,0,0-.15,1.79.12.12,0,0,0,.22,0,10.77,10.77,0,0,0,.19-1.79C173.84,319.14,173.91,318.53,174,317.92Z" style="fill:#263238"></path><path d="M171.51,303.69c-.33,1.25-.66,2.51-.89,3.79-.12.64-.21,1.29-.3,1.94a7.57,7.57,0,0,0-.13,1.9c0,.05.09.05.1,0a11,11,0,0,0,.3-1.81c.08-.63.18-1.25.28-1.87.23-1.31.47-2.61.8-3.9C171.69,303.64,171.54,303.58,171.51,303.69Z" style="fill:#263238"></path><path d="M116.33,386.6c-.21-2.37-.44-4.73-.69-7.1-.49-4.68-1.07-9.35-1.69-14s-1.23-9.32-2-14a34.42,34.42,0,0,0-1.43-6.34,6,6,0,0,0-3.51-4c-4.42-1.52-7.41,3.06-9.19,6.31a.09.09,0,0,0,.15.08c1.07-1.54,4-5.85,7.38-5.65,2.26.14,4.06,1.73,5.15,7.36,2.7,14,5.13,42.5,5.41,44.36.15,1,.85.94.86-.11C116.8,391.25,116.53,388.92,116.33,386.6Z" style="fill:#263238"></path><path d="M99,345.79s3.87-13.65-4.68-6.82c-14.23,11.36-14.73,36.08-14.73,36.08s25.29-14.69,28.43-24.38C112.74,336.24,99,345.79,99,345.79Z" style="fill:#FFC727"></path><path d="M103.82,352.5c-2,.4-4,.66-6,.95l-2.85.4c-.64.09-1.29.15-1.93.23,1.88-2.6,3.78-5.18,5.59-7.83.07-.1-.09-.21-.17-.12A61.49,61.49,0,0,0,94.23,351c-.37-1.05-.75-2.11-1.12-3.17-.43-1.22-.89-2.43-1.2-3.69,0-.11-.19-.06-.17.05.35,1.25.59,2.52.93,3.78s.69,2.41,1.12,3.58q-1.4,1.81-2.68,3.68c-.43-1.23-1-2.42-1.36-3.68a.08.08,0,0,0-.16.05c.46,1.39.7,2.83,1.12,4.22-.58.85-1.16,1.7-1.71,2.55-1,1.58-2,3.19-2.93,4.81a.38.38,0,0,0-.22.38c-1.6,2.76-3.11,5.57-4.61,8.4a.08.08,0,1,0,.14.08c1.51-2.8,3.17-5.52,4.91-8.19h0a4.07,4.07,0,0,1,.83-.16l.87-.19c.65-.14,1.3-.31,1.95-.47,1.28-.32,2.55-.62,3.86-.85.1,0,.05-.18,0-.16-1.53.29-3.07.46-4.62.64-.73.09-1.46.18-2.18.3h-.11q1.36-2.07,2.77-4.11t2.81-4c.88-.12,1.75-.35,2.62-.52l2.93-.57c2-.39,3.91-.83,5.88-1.15C104,352.64,103.93,352.47,103.82,352.5Z" style="fill:#263238"></path><path d="M88.62,353.84c-.12-.36-.23-.72-.34-1.08a23.26,23.26,0,0,1-.58-2.29c0-.11-.19-.06-.16,0,.16.77.34,1.53.52,2.3a13.72,13.72,0,0,0,.66,2.27A.15.15,0,0,0,89,355C88.9,354.61,88.75,354.23,88.62,353.84Z" style="fill:#263238"></path><path d="M106.41,349.33c-1.16.18-2.32.26-3.48.36s-2.32.26-3.48.44c-.06,0-.06.1,0,.1,1.17-.08,2.32-.17,3.48-.32s2.32-.33,3.48-.41C106.52,349.5,106.51,349.32,106.41,349.33Z" style="fill:#263238"></path><path d="M124.61,369.32c-.45-10.05-1.09-20.09-2.1-30.1-.5-5-1.06-10-1.77-14.93a106.13,106.13,0,0,0-2.87-14.45,27.82,27.82,0,0,0-4.82-10.19,10.91,10.91,0,0,0-9.71-4.24c-4.4.54-7.94,3.32-11,6.33-3.44,3.38-6.58,7.06-9.77,10.68-.8.91-1.6,1.83-2.39,2.76-.07.08,0,.2.12.11,3.11-3.57,6.35-7.05,9.73-10.37,3.13-3.07,6.35-6.42,10.68-7.69a11,11,0,0,1,6.2-.15,9.75,9.75,0,0,1,4.24,2.69c2.44,2.53,3.81,6,4.78,9.29,2.71,9.24,3.67,18.93,4.68,28.47,1,9.69,1.71,19.41,2.19,29.15s.88,19.58,1.82,29.33c.11,1.21.27,2.41.42,3.61.11.81,1.36.81,1.29,0C125.53,389.51,125.06,379.42,124.61,369.32Z" style="fill:#263238"></path><path d="M91.78,302.83s5.74-10.63-1-14-29.48,21.93-36.11,59c0,0,36.66-16.21,49.1-32.38S102.07,295.67,91.78,302.83Z" style="fill:#FFC727"></path><path d="M97.17,311.47c-4.12,0-8.23-.32-12.35-.29.77-.88,1.54-1.77,2.32-2.65a39.24,39.24,0,0,0,3.22-3.74c.06-.09-.07-.21-.15-.14a30.63,30.63,0,0,0-3.12,3.12q-1.55,1.65-3.08,3.31c-1.57,1.7-3.12,3.43-4.65,5.17,0-.17,0-.34,0-.5v-2.17c0-1.39,0-2.79.05-4.19,0-2.83,0-5.68.21-8.51,0-.1-.16-.1-.17,0-.19,2.84-.49,5.67-.63,8.52-.07,1.39-.1,2.79-.12,4.19,0,.72,0,1.44,0,2.16,0,.4,0,.81,0,1.22-.24.27-.49.53-.73.81-3.29,3.75-6.42,7.64-9.46,11.59,0-.21,0-.44-.05-.65l-.15-1.31c-.1-.94-.23-1.89-.37-2.83s-.28-1.76-.43-2.64-.4-2-.48-3c0-.12-.19-.09-.17,0a27.74,27.74,0,0,1,.35,3c.08.91.17,1.82.25,2.72s.16,1.82.26,2.73c0,.43.08.87.13,1.3,0,.22.05.44.08.66a1.38,1.38,0,0,0,.17.52l-1.56,2c-2.08,2.75-4.12,5.54-6.16,8.31-.07.09,0,.21.12.12,1.93-2.52,3.92-5,5.94-7.45,1.5.07,3,0,4.55-.07s3.18,0,4.77,0a.09.09,0,0,0,0-.17l-4.77.06c-1.45,0-2.93-.07-4.38,0q2.65-3.23,5.36-6.43c.65-.78,1.31-1.55,2-2.33a9.42,9.42,0,0,0,1.84.06H78L82,324c2.8,0,5.6-.14,8.4-.14.11,0,.1-.17,0-.17-2.8,0-5.6-.16-8.4-.23-1.36,0-2.71-.08-4.07-.09l-2.17,0c-.41,0-.83,0-1.25,0,1.54-1.82,3.07-3.65,4.62-5.47a.27.27,0,0,0,.08-.1c1.51-1.77,3-3.55,4.53-5.3l.63-.72c4.27.13,8.53-.15,12.8-.07A.08.08,0,1,0,97.17,311.47Z" style="fill:#263238"></path><path d="M95.06,318.75h-1c-.1,0-.09.15,0,.15h1C95.17,318.92,95.17,318.75,95.06,318.75Z" style="fill:#263238"></path><path d="M92.84,318.76c-1.32,0-2.64,0-4-.08l-2-.06a6.67,6.67,0,0,0-1.84,0c-.06,0,0,.1,0,.12a7.15,7.15,0,0,0,1.85.13l2,0c1.32,0,2.64,0,4,0C93,318.93,93,318.76,92.84,318.76Z" style="fill:#263238"></path><path d="M81.32,331.13a56.71,56.71,0,0,0-8.11-.73,0,0,0,0,0,0,.06c2.69.26,5.39.4,8.07.84C81.38,331.32,81.42,331.15,81.32,331.13Z" style="fill:#263238"></path><path d="M70.3,319.34l-.09-.71c-.07-.53-.15-1.06-.23-1.58-.16-1-.34-2-.53-3a.09.09,0,0,0-.17,0c.13,1,.24,2.07.34,3.11,0,.51.08,1,.13,1.53a4.2,4.2,0,0,0,.21,1.46c.07.15.31.09.35-.06A1.94,1.94,0,0,0,70.3,319.34Z" style="fill:#263238"></path><path d="M132,289.18c-1.31-2.44-3-5.66-6.26-5.46-2.7.17-3.92,2.93-4.5,5.21-1.78,7.05-1.91,14.5-2.26,21.73-.73,15.28-1.39,30.57-1.49,45.87,0,4.24,0,8.49,0,12.73s0,8.67.3,13a.32.32,0,0,0,.64,0c0-3.7-.11-7.4-.12-11.1s0-7.22.07-10.83q.16-11,.58-21.93c.27-7.27.59-14.53.9-21.79q.22-5.44.47-10.89c.16-3.51.31-7,.71-10.53.23-2,.52-3.92.93-5.85a8.13,8.13,0,0,1,1.69-3.92,3.7,3.7,0,0,1,4.78-.34,10.16,10.16,0,0,1,3.39,4.22C131.94,289.37,132.08,289.28,132,289.18Z" style="fill:#263238"></path><path d="M131.14,288s-2.69-9.51,3.26-4.76c9.91,7.92,10.27,25.13,10.27,25.13s-17.62-10.23-19.81-17C121.6,281.36,131.14,288,131.14,288Z" style="fill:#FFC727"></path><path d="M141,301.34c-.16-.27-.33-.52-.5-.78a5.47,5.47,0,0,0,0-.81c0-.41,0-.82,0-1.23,0-.8,0-1.61.09-2.41,0-.11-.16-.1-.17,0q-.06,1.18-.09,2.37c0,.39,0,.79,0,1.18,0,.15,0,.33,0,.51-.69-1.08-1.4-2.14-2.14-3.18-.21-.31-.43-.6-.65-.9a19,19,0,0,1,0-3.11c0-1.1,0-2.21.07-3.31a.09.09,0,0,0-.17,0q-.06,1.72-.15,3.45a22.39,22.39,0,0,0-.07,2.46c-1.7-2.31-3.5-4.54-5.33-6.76-.06-.08-.19,0-.13.1,1.13,1.43,2.21,2.9,3.28,4.39-2.08-.48-4.19-.76-6.29-1.07-.11,0-.15.15,0,.17,2.23.34,4.42.9,6.62,1.38,0,0,0,0,0,0l2.51,3.58c.34.49.66,1,1,1.48l-.1,0-.68-.09c-.49-.06-1-.1-1.47-.14-1-.08-2-.13-3.05-.18-.11,0-.1.16,0,.17,1,0,2,.09,3,.2L138,299l.69.09.2,0,1.7,2.5c1,1.47,1.88,3.05,2.94,4.47a.08.08,0,0,0,.14-.09A46.31,46.31,0,0,0,141,301.34Z" style="fill:#263238"></path><path d="M136.57,290.6c0-.37,0-.74,0-1.11a18,18,0,0,1,.09-2.33.08.08,0,1,0-.16,0c0,.77-.09,1.54-.12,2.31,0,.38,0,.77,0,1.15,0,.18,0,.36,0,.53a1.5,1.5,0,0,0,0,.56.07.07,0,0,0,.14,0,1.45,1.45,0,0,0,0-.51C136.57,291,136.57,290.79,136.57,290.6Z" style="fill:#263238"></path><path d="M134.4,294.53c-.66-.11-1.33-.14-2-.2s-1.45-.12-2.18-.22a.09.09,0,1,0,0,.17c1.39.09,2.78.34,4.17.39A.07.07,0,0,0,134.4,294.53Z" style="fill:#263238"></path><path d="M139.93,294.59a.92.92,0,0,1,0,.37v.31c0,.22,0,.44,0,.66v.67a1.41,1.41,0,0,0,0,.58s.05,0,.07,0a.65.65,0,0,0,0-.28v-.31c0-.22,0-.44,0-.66v-1c0-.1,0-.29,0-.37S139.82,294.43,139.93,294.59Z" style="fill:#263238"></path><path d="M141.21,337.72c-3.7-2.78-7-6.78-12-7-4.12-.16-7,2.94-8.65,6.39a35.83,35.83,0,0,0-2,5.68c-.75,2.6-1.45,5.22-2.1,7.84q-1.93,7.75-3.3,15.63c-.5,2.93-1,5.86-1.34,8.81a73.8,73.8,0,0,0-.86,9,.47.47,0,0,0,.92.1c.5-2.47.71-5,1.07-7.5s.74-5,1.17-7.5c.85-5,1.82-10,3-14.9,1.06-4.66,2.11-9.39,3.61-13.93,1.08-3.25,2.81-7.05,6.32-8.22,5.35-1.78,10.2,2.74,14.12,5.68C141.18,337.91,141.3,337.78,141.21,337.72Z" style="fill:#263238"></path><path d="M137.38,335.06s-3.42-9.75,1.52-11.67c7.41-2.86,26.78,19,23,52.4,0,0-15-8.25-26-17.53s-13.88-21.39-9-24.52S137.38,335.06,137.38,335.06Z" style="fill:#FFC727"></path><path d="M159.65,368.62a24.22,24.22,0,0,0-1.8-3.37c-.63-1.15-1.27-2.29-1.93-3.42-1.29-2.19-2.57-4.4-3.88-6.58l-.65-1.06c0-.13.05-.26.08-.39.07-.32.14-.65.22-1,.16-.72.29-1.46.42-2.19.27-1.43.52-2.88.91-4.28,0-.11-.15-.14-.17,0-.31,1.43-.76,2.84-1.18,4.23-.21.69-.43,1.38-.61,2.08-.06.24-.13.47-.19.71-1.59-2.61-3.21-5.2-5-7.71a3.74,3.74,0,0,0,.17-1.07c0-.49.11-1,.17-1.47.13-1.1.25-2.2.42-3.3a60.49,60.49,0,0,1,1.17-6.4c0-.11-.14-.14-.17,0-.53,2.1-1.11,4.21-1.51,6.35-.2,1-.38,2.09-.52,3.15q-.1.79-.18,1.59,0,.23-.06.48c-.54-.76-1.08-1.52-1.64-2.26-1.71-2.25-3.48-4.45-5.27-6.63-.07-.09-.21,0-.14.09a118.77,118.77,0,0,1,8.42,12.3c.49.78,1,1.58,1.45,2.36l-.48-.06c-.62-.08-1.26-.12-1.88-.17q-1.89-.18-3.78-.33c-2.53-.2-5.06-.36-7.57-.63-.11,0-.14.16,0,.17,2.55.29,5.09.7,7.63,1.06q1.86.27,3.75.51a15,15,0,0,0,2.88.29l3,4.83c-.22,0-.45,0-.67,0h-3.61l-4.87,0c-.11,0-.09.17,0,.17,1.64,0,3.28.1,4.93.19l2.33.14,1.17.08a2.23,2.23,0,0,0,1,0l2.53,4.11q1.16,1.9,2.36,3.78a30.4,30.4,0,0,0,2.54,3.81A.09.09,0,0,0,159.65,368.62Z" style="fill:#263238"></path><path d="M152.52,341.6a24.47,24.47,0,0,1-.67,3.17c-.28,1.09-.59,2.16-.94,3.22a.11.11,0,1,0,.2.07c.33-1.06.63-2.12.89-3.19s.42-2.17.69-3.24C152.71,341.52,152.53,341.49,152.52,341.6Z" style="fill:#263238"></path><path d="M141.52,348.13a1.26,1.26,0,0,0-.82-.31l-1.41-.19c-.88-.12-1.75-.22-2.63-.32-1.83-.21-3.65-.39-5.48-.62a.09.09,0,0,0,0,.17c1.72.21,3.43.47,5.15.69l2.52.33,1.22.14a4.31,4.31,0,0,1,1.39.23A.07.07,0,0,0,141.52,348.13Z" style="fill:#263238"></path><path d="M152.49,362.83c-.86-.07-1.73-.1-2.59-.13l-1.31,0-.62,0a3.73,3.73,0,0,1-.82,0c-.12,0-.13.18,0,.16a4,4,0,0,1,.77,0l.68,0,1.3.08c.86,0,1.73.1,2.59.11A.1.1,0,0,0,152.49,362.83Z" style="fill:#263238"></path><path d="M157.77,359.09c.1-.49.19-1,.28-1.47.18-1,.36-1.93.53-2.89a.08.08,0,1,0-.16,0c-.22.94-.43,1.88-.64,2.82-.11.47-.21.93-.31,1.41,0,.21-.09.43-.13.65a1.79,1.79,0,0,0-.08.69c0,.08.13.14.19.06A3.72,3.72,0,0,0,157.77,359.09Z" style="fill:#263238"></path><polygon points="144.57 390.11 143.9 403.93 141.92 444.73 101.32 444.73 99.34 403.93 98.67 390.11 144.57 390.11" style="fill:#37474f"></polygon><polygon points="144.57 390.11 143.9 403.93 99.34 403.93 98.67 390.11 144.57 390.11" style="fill:#263238"></polygon><rect x="95.57" y="380.34" width="52.11" height="13.83" style="fill:#37474f"></rect></g><g id="freepik--Character--inject-2"><path d="M325.92,329.64l-.05.19c-.43,1.67-3.59,14.07-7.75,30.45-.3,1.18-.61,2.39-.93,3.62-6.93,27.23-16.16,63.49-20.52,80.66h-9.41c0,.2,0,.41,0,.62,0-.22,0-.42,0-.62h-69c7.1-27.68,25.13-100.16,28.32-113l.17-.69.32-1.26Z" style="fill:#f7a9a0"></path><path d="M325.92,329.64l-.05.19-7.19,31.5-.86,3.75-18.17,79.48H287.26c0,.2,0,.41,0,.62,0-.22,0-.42,0-.62H217.78l28.75-113,.17-.69.32-1.26Z" style="fill:#455a64"></path><path d="M325.92,329.63l-.05.19-7.19,31.51-.86,3.74-18.17,79.49H287.26c0,.2,0,.41,0,.61,0-.21,0-.41,0-.61H277L250,329.63Z" style="fill:#263238"></path><path d="M366,444.56H287.26c0,.2,0,.41,0,.62,0-.22,0-.42,0-.62-.05-1.22-.11-2.42-.14-3.58-.05-1.54-.12-3.1-.18-4.64,0-.58-.05-1.14-.08-1.71,0-.36,0-.73,0-1.09s0-1-.07-1.47-.05-1.16-.07-1.71,0-1.16-.05-1.73c0-.23,0-.47,0-.71-.05-1-.09-2-.12-2.86,0-.43,0-.85-.05-1.25,0-.18,0-.35,0-.53v-.15c0-.19,0-.38,0-.56s0-.21,0-.31c0-.47,0-.91-.05-1.32a1.62,1.62,0,0,0,0-.32c0-.16,0-.33,0-.49,0-.54-.05-1-.06-1.49,0-.29,0-.55,0-.8s0-.75,0-1c0-.12,0-.22,0-.32a2.91,2.91,0,0,0,0-.31c0-.3,0-.45,0-.45a7.73,7.73,0,0,0-.67-.39h0l-.89-.52-.06,0-.07,0c-.27-.18-.56-.34-.83-.51-1.25-.71-2.44-1.38-3.59-2l-1.13-.62c-.75-.4-1.46-.78-2.16-1.13-1.39-.73-2.71-1.39-3.91-2l-1.74-.83-.81-.38-.18-.09c-.29-.12-.58-.26-.84-.39h0c-.65-.3-1.25-.55-1.79-.79l-1-.42c-1-.41-1.76-.72-2.28-.92l-.29-.11-.28-.1a1.11,1.11,0,0,0-.25-.09l-.12-.05c-.1-.26-.19-.53-.27-.79s-.21-.55-.29-.82c-.29-.83-.57-1.68-.85-2.54s-.63-2-.93-3.06c-.21-.69-.42-1.39-.62-2.1s-.38-1.31-.55-2c-.85-3-1.61-6.08-2.32-9.17-.15-.61-.29-1.23-.42-1.85s-.32-1.46-.47-2.19c-.31-1.42-.6-2.84-.87-4.25-.12-.53-.23-1-.33-1.57-.67-3.53-1.27-7-1.82-10.36l-.15-1c-.14-.91-.27-1.82-.41-2.72s-.24-1.59-.35-2.39q-.39-2.74-.74-5.36c-.05-.42-.1-.82-.15-1.22-.15-1.25-.3-2.47-.44-3.66-.07-.59-.14-1.18-.2-1.75s-.11-.94-.16-1.41l-.12-1a1.81,1.81,0,0,0,0-.25c-.06-.58-.13-1.15-.18-1.69-.16-1.63-.3-3.11-.43-4.44-.07-.79-.13-1.52-.19-2.19a.25.25,0,0,0,0-.09c-.11-1.28-.19-2.35-.25-3.15v0c0-.54-.08-1-.09-1.25s0-.35,0-.4v0h0l60.07,0h17l30.43,0s.29,3.78.83,10.42c0,.66.1,1.37.15,2.1.32,3.91.68,8.6,1.1,14,.06.73.12,1.49.19,2.24.2,2.71.42,5.58.68,8.59.12,1.78.27,3.59.41,5.43.06.7.12,1.38.17,2.07.32,4.07.65,8.33,1,12.75.91,11.63,1.89,24.33,2.91,37.45,0,.2,0,.41.05.61.24,3.36.51,6.75.77,10.15C365.57,438.46,365.8,441.51,366,444.56Z" style="fill:#f7a9a0"></path><path d="M369.68,444.56H287.26c-.05-1.17-.1-2.37-.15-3.58-.05-1.54-.12-3.1-.18-4.64-.1-2.65-.2-5.27-.3-7.71,0-.23,0-.47,0-.71-.06-1.67-.12-3.23-.19-4.64v-.15c0-.78-.06-1.51-.08-2.19a1.62,1.62,0,0,0,0-.32c0-1.08-.07-2-.11-2.78,0-.39,0-.75,0-1,0-.12,0-.22,0-.32a2.91,2.91,0,0,0,0-.31c0-.3,0-.45,0-.45h0a7.73,7.73,0,0,0-.67-.39h0l-.89-.52h0l-1-.56c-1.25-.71-2.44-1.38-3.59-2s-2.24-1.21-3.29-1.75c-1.39-.73-2.71-1.39-3.91-2l-1.74-.83-.81-.38-.18-.08h0c-.29-.12-.56-.25-.84-.38h0l-1.79-.79-1-.42c-1-.41-1.76-.72-2.28-.92l-.29-.11-.28-.1a1.11,1.11,0,0,0-.25-.09l-.12-.05c-.1-.26-.19-.53-.27-.79s-.22-.56-.31-.84c-.29-.83-.56-1.67-.83-2.52-.33-1-.63-2-.93-3.06-.21-.69-.42-1.39-.62-2.1s-.38-1.31-.55-2c-.85-3-1.61-6.08-2.32-9.17-.15-.61-.29-1.23-.42-1.85s-.32-1.46-.47-2.19v0c-.3-1.41-.59-2.81-.86-4.22-.89-4.41-1.64-8.75-2.3-12.92-.14-.91-.27-1.82-.41-2.72s-.24-1.59-.35-2.39q-.39-2.74-.74-5.36c-.05-.42-.1-.82-.15-1.22-.15-1.25-.3-2.47-.44-3.66-.07-.59-.14-1.18-.2-1.75s-.11-.94-.16-1.41l-.12-1a1.81,1.81,0,0,0,0-.25c-.06-.58-.11-1.15-.18-1.69-.16-1.63-.3-3.11-.43-4.44-.06-.79-.13-1.52-.19-2.19a.25.25,0,0,0,0-.09c-.1-1.3-.19-2.35-.25-3.15v0c0-.54-.06-1-.09-1.25s0-.35,0-.4v0h107.5v0s19,28.86,9.57,66.81C366.65,396.45,368.47,426.56,369.68,444.56Z" style="fill:#455a64"></path><path d="M296.08,419.86c-3.62-2.52-7.53-4.63-11.37-6.79s-7.9-4.34-12-6.25c-8-3.71-16.39-6.39-24.78-9-.22-.07-.36.28-.15.37,8.08,3.47,15.92,7.45,24,11,4,1.8,8.12,3.52,12.17,5.3s8,3.8,12.08,5.51A.09.09,0,0,0,296.08,419.86Z" style="fill:#263238"></path><path d="M274,380.3c-.1-4-.38-7.93-.58-11.88-.46-9.35-.82-18.75-1.69-28.07a.29.29,0,0,0-.58,0c-.12,7.23.16,14.49.31,21.72.07,3.61.18,7.23.28,10.85a102.49,102.49,0,0,1,.06,10.37c-.19,2.6-.76,7.67-4.16,8-3.21.3-5-3.16-5.76-5.7-2-6.43-2.76-13.39-3.42-20.08-.39-4-.78-7.92-1-11.89a108.54,108.54,0,0,1-.39-12.22c0-.26-.39-.25-.4,0-.22,4.08-.78,8.14-.92,12.25a121.7,121.7,0,0,0,.12,12.23c.25,3.9.58,7.83,1.16,11.7a42.13,42.13,0,0,0,2.52,10.34c1.18,2.74,3.2,5.26,6.28,5.86a6.5,6.5,0,0,0,1.14.12c0,.84.15,1.68.21,2.51.09,1.31.26,2.61.43,3.92a30.22,30.22,0,0,0,.8,3.78,14.43,14.43,0,0,0,1.33,3.62.2.2,0,0,0,.37-.11,17.35,17.35,0,0,0-.31-3.73c-.17-1.27-.35-2.56-.61-3.82s-.49-2.48-.74-3.72c-.17-.82-.29-1.68-.45-2.52a6.08,6.08,0,0,0,4.54-3.57C273.93,387.21,274.05,383.61,274,380.3Z" style="fill:#263238"></path><path d="M359.76,378c-5.67.39-11.27,1.13-17,.45A29.58,29.58,0,0,1,328,372.67c-9.36-7.25-13.45-19.12-16-30.26a.2.2,0,0,0-.39.06c1,9.66,3.14,19.64,9.37,27.42a30,30,0,0,0,9.94,8.19,29.21,29.21,0,0,0,13.15,2.71,63.44,63.44,0,0,0,15.74-2.13A.33.33,0,0,0,359.76,378Z" style="fill:#263238"></path><path d="M287.26,444.56c0,.2,0,.41,0,.62,0-.22,0-.42,0-.62h-.41c-.4-6.21-1.33-25-1.4-29.23v-.64c0-.17.67.07.7.24s0,.36.06.61c.43,4.06,1.47,18.59,1.73,23.44.08,1.85.17,3.71.22,5.58Z" style="fill:#263238"></path><path d="M335.83,179.34c4.17,16.48,12,35.57,8.14,52.77-3,13.48-12.93,24.18-23.86,32-24.08,17.16-60.84,26.3-84.79,3.83-9.56-9-15.32-30.59-4.68-41.12,5.47-5.39,12.77-7.88,19.5-11.27,8.89-4.46,14.59-11.13,17.15-20.78,5-18.81.73-31-1.44-49.74-.39-3.49-.28-7,2.51-10.61a23.81,23.81,0,0,1,9.7-8.33,23.75,23.75,0,0,1,10.83-4.16c8.35-.82,17.74,5.1,25,8.5s11.34,7.8,13.48,15.73C330.37,157.17,333,168.28,335.83,179.34Z" style="fill:#263238"></path><path d="M339.5,186.76c-4.79-14.86-9.88-29.61-14.86-44.4,0-.09-.18-.06-.15,0,3.75,12.29,7.33,24.62,11.24,36.87,3.84,12,8.61,24.07,11.38,36.37,6.21,27.6-20,44.74-43.8,48.22-1.08.16-.71,1.87.38,1.67,20.84-3.72,44.11-15.88,45.74-39.68C350.32,212.82,343.42,198.91,339.5,186.76Z" style="fill:#263238"></path><path d="M266.89,143.28a.24.24,0,0,0-.46.11c2.44,15.38,6.72,33.08.78,48.14a39.6,39.6,0,0,1-14.66,18.22c-5.24,3.5-11.27,4.95-17,7.36-22.45,9.4-16.18,41,3.35,49.86.41.19.74-.51.34-.72-13.92-7.07-21.43-23.59-14.29-38.32,5.73-11.82,21.43-11.67,31-19.38C275.7,192.58,271.9,165.32,266.89,143.28Z" style="fill:#263238"></path><path d="M287.35,225.17c-6,13.14-41.53,80.6-62.75,81.28-25.66.83-49.61-60.92-53.25-81-1-5.58,45.37-11.52,48.48-2,4.82,14.73,9.88,25,11.68,25,3.71-.1,22.15-22.67,44.78-35.81C289.44,205,291.94,215.06,287.35,225.17Z" style="fill:#f7a9a0"></path><path d="M266.3,265.46l-16.4-36.4s15.8-12.38,25.51-18c12.85-7.43,18.62-4.4,12.76,12.82C284.25,235.41,266.3,265.46,266.3,265.46Z" style="fill:#FFC727"></path><path d="M258.47,228.64a2.26,2.26,0,1,1-2.26-2.26A2.27,2.27,0,0,1,258.47,228.64Zm20.34-2.26a2.27,2.27,0,1,0,2.26,2.26A2.26,2.26,0,0,0,278.81,226.38ZM290,210.09a2.24,2.24,0,0,0-2.17,2.24,2.27,2.27,0,0,0,2.27,2.27,1.14,1.14,0,0,0,.26,0A10.79,10.79,0,0,0,290,210.09Zm-22.51,33.1a2.27,2.27,0,1,0,2.26,2.27A2.27,2.27,0,0,0,267.51,243.19Z" style="fill:#fff"></path><path d="M268.08,260.21c-2-5.46-4.11-10.88-6.45-16.22q-1.74-4-3.61-7.93c-1.25-2.62-2.76-5.12-4-7.76-.06-.14-.29,0-.22.12,1.34,2.56,2.34,5.34,3.54,8s2.4,5.3,3.57,8c2.34,5.31,4.7,10.62,6.92,16C267.93,260.48,268.14,260.36,268.08,260.21Z" style="fill:#263238"></path><path d="M288.16,223.89c-3.91,11.53-21.87,41.58-21.87,41.58L253.91,238l34.59-30C291.12,209.8,291.22,214.92,288.16,223.89Z" style="opacity:0.1"></path><path d="M218.76,158.78,238,211.89c.75,1.54.07,2.92-1.5,3.08l-28.12,2.83a4.56,4.56,0,0,1-4.19-2.5L185,162.19c-.75-1.55-.07-2.93,1.5-3.08l28.12-2.84A4.55,4.55,0,0,1,218.76,158.78Z" style="fill:#a6a6a6"></path><path d="M215.42,159.08l19.22,53.12c.75,1.54.07,2.92-1.5,3.08L205,218.11a4.57,4.57,0,0,1-4.19-2.51l-19.22-53.11c-.75-1.54-.08-2.92,1.49-3.08l28.13-2.83A4.56,4.56,0,0,1,215.42,159.08Z" style="fill:#dbdbdb"></path><path d="M208,162.35a2.4,2.4,0,1,0,2.09-2.68A2.4,2.4,0,0,0,208,162.35Z" style="fill:#263238"></path><path d="M180,249.54S168,231.26,165.9,214.84c-1.41-11.35-1.74-36.38,25.3-57.24,6.41-4.95,19.05-7.45,11.52,4.44-5.36,8.44-11.31,12.17-13.53,17.65,0,0,16.47-1.27,21.17,5.34a150.58,150.58,0,0,1,11.06,18.17,31.81,31.81,0,0,1-3.21,2.38s4.21,6.33,1.82,17.66Z" style="fill:#f7a9a0"></path><path d="M166.28,203.8c3.36-5,10.64-15.39,19.56-21.83,9.91-7.16,30.93-18.29,36.14-10.92,3.82,5.41-3.83,10.36-3.83,10.36s9.66-2.77,12,2.87c2.17,5.14-4,8.61-4,8.61s6.15-.67,7.29,4.68c1.37,6.44-11.74,6.79-16,14.5C216.56,213.81,166.28,203.8,166.28,203.8Z" style="fill:#f7a9a0"></path><path d="M191.66,193.7c3.92-4.16,15.25-11.31,26.26-12.4.25,0,.4.15.18.22a120.37,120.37,0,0,0-26.37,12.27C191.67,193.83,191.62,193.75,191.66,193.7Z" style="fill:#263238"></path><path d="M199.18,203.49c3.75-3.24,15.75-10.09,26.95-10.81.25,0,.39.17.17.23a128.58,128.58,0,0,0-27.06,10.68C199.18,203.62,199.13,203.53,199.18,203.49Z" style="fill:#263238"></path><path d="M247,329.64l6.05-41.09s-12.41-15.45-5.39-30.6c3.54-7.68,23-36.41,35-47.25,14.11-12.76,29.74-3.83,36.18,3.32,12.9,14.33,27.77,49.55,38.24,115.62Z" style="fill:#f7a9a0"></path><path d="M245.54,318.27l7.54-29.72s-12.41-15.45-5.39-30.6c3.54-7.68,23-36.41,35-47.25,14.11-12.76,31.37-4.45,37.89,2.64,11.55,12.57,26.06,38.87,36.53,104.93Z" style="fill:#FFC727"></path><path d="M281.07,228.64a2.26,2.26,0,1,1-2.26-2.26A2.27,2.27,0,0,1,281.07,228.64Zm20.34-2.26a2.27,2.27,0,1,0,2.26,2.26A2.26,2.26,0,0,0,301.41,226.38Zm22.6,0a2.27,2.27,0,1,0,2.26,2.26A2.26,2.26,0,0,0,324,226.38Zm-33.9-16.31a2.27,2.27,0,1,0,2.26,2.27A2.27,2.27,0,0,0,290.11,210.07Zm22.6,0a2.27,2.27,0,1,0,2.26,2.27A2.27,2.27,0,0,0,312.71,210.07Zm-56.5,49.43a2.26,2.26,0,1,0,2.26,2.26A2.26,2.26,0,0,0,256.21,259.5Zm22.6,0a2.26,2.26,0,1,0,2.26,2.26A2.26,2.26,0,0,0,278.81,259.5Zm22.6,0a2.26,2.26,0,1,0,2.26,2.26A2.26,2.26,0,0,0,301.41,259.5Zm22.6,0a2.26,2.26,0,1,0,2.26,2.26A2.26,2.26,0,0,0,324,259.5ZM344.48,261a1.92,1.92,0,0,0-.13.72,2.22,2.22,0,0,0,.87,1.77C345,262.69,344.73,261.86,344.48,261Zm-77-17.85a2.27,2.27,0,1,0,2.26,2.27A2.27,2.27,0,0,0,267.51,243.19Zm22.6,0a2.27,2.27,0,1,0,2.26,2.27A2.27,2.27,0,0,0,290.11,243.19Zm22.6,0a2.27,2.27,0,1,0,2.26,2.27A2.27,2.27,0,0,0,312.71,243.19Zm22.6,0a2.27,2.27,0,1,0,2.26,2.27A2.27,2.27,0,0,0,335.31,243.19Zm-79.1,49.43a2.26,2.26,0,1,0,2.26,2.26A2.26,2.26,0,0,0,256.21,292.62Zm22.6,0a2.26,2.26,0,1,0,2.26,2.26A2.26,2.26,0,0,0,278.81,292.62Zm22.6,0a2.26,2.26,0,1,0,2.26,2.26A2.26,2.26,0,0,0,301.41,292.62Zm22.6,0a2.26,2.26,0,1,0,2.26,2.26A2.26,2.26,0,0,0,324,292.62Zm22.6,0a2.26,2.26,0,1,0,2.26,2.26A2.26,2.26,0,0,0,346.61,292.62Zm-79.1-16.31a2.27,2.27,0,1,0,2.26,2.26A2.26,2.26,0,0,0,267.51,276.31Zm22.6,0a2.27,2.27,0,1,0,2.26,2.26A2.26,2.26,0,0,0,290.11,276.31Zm22.6,0a2.27,2.27,0,1,0,2.26,2.26A2.26,2.26,0,0,0,312.71,276.31Zm22.6,0a2.27,2.27,0,1,0,2.26,2.26A2.26,2.26,0,0,0,335.31,276.31Zm-67.8,33.12a2.26,2.26,0,1,0,2.26,2.26A2.26,2.26,0,0,0,267.51,309.43Zm22.6,0a2.26,2.26,0,1,0,2.26,2.26A2.26,2.26,0,0,0,290.11,309.43Zm22.6,0a2.26,2.26,0,1,0,2.26,2.26A2.26,2.26,0,0,0,312.71,309.43Zm22.6,0a2.26,2.26,0,1,0,2.26,2.26A2.26,2.26,0,0,0,335.31,309.43Zm20.53,1.36a2.28,2.28,0,0,0-.19.91,2.19,2.19,0,0,0,.61,1.52C356.12,312.4,356,311.6,355.84,310.79Z" style="fill:#fff"></path><path d="M290.24,284.36a106.08,106.08,0,0,0-15.51,1.41c-2.54.46-5.05,1-7.55,1.66-1.25.32-2.5.59-3.76.85a16,16,0,0,1-4,.46.1.1,0,0,0,0,.19,22.66,22.66,0,0,0,7.49-.22c2.58-.44,5.14-1,7.72-1.47,5.2-.94,10.41-1.88,15.67-2.45C290.52,284.77,290.49,284.36,290.24,284.36Z" style="fill:#263238"></path><path d="M302.67,289.86a113.92,113.92,0,0,0-12.76-1.54c-2.14-.13-4.28-.14-6.42-.08-1,0-2.05.06-3.07.12s-2.25.27-3.37.32c-.12,0-.13.18,0,.18,1.06,0,2.13.16,3.19.21l3.2.15c2.14.1,4.27.23,6.41.31,4.28.16,8.54.37,12.81.68C302.88,290.23,302.89,289.9,302.67,289.86Z" style="fill:#263238"></path><path d="M308.48,207.36c-.22,2.15-9.41,16.07-19,15.18-6.78-.63-4.21-14.27-4.21-14.27L278.7,190l21.73-17.92S308.57,206.45,308.48,207.36Z" style="fill:#f7a9a0"></path><path d="M303.28,184.15a37,37,0,0,1-18.4,23.1L278.69,190l21.74-17.92Z" style="fill:#263238"></path><path d="M251.13,163c-1.48,31.78,17.38,36.25,24.24,36.56,6.22.29,27.44.46,32.19-31S298,126.38,283.81,125,252.6,131.23,251.13,163Z" style="fill:#f7a9a0"></path><path d="M305.57,169.2c-5.15.51-6.25-11.37-6.25-11.37s-10.47.26-14.24-14.72a23.13,23.13,0,0,0,4.9,12.35s-18.81-.46-26.91-15.74c0,0,3.27,7.8,6.24,10.54,0,0-7.79-2-11.7-8.2,0,0-3,9-5.47,11.5,0,0,.07-32.31,30.05-29.51,0,0,18.76.84,25.8,15.52S305.57,169.2,305.57,169.2Z" style="fill:#263238"></path><path d="M302.16,168.59s6.54-10.2,11.14-7.91,0,16.89-5.24,19.07a5.38,5.38,0,0,1-7.32-2.6Z" style="fill:#f7a9a0"></path><path d="M311.87,164.83c.08,0,.1.11,0,.14-3.65,1.65-5.46,5.17-6.68,8.79,1-1.42,2.52-2.23,4.4-1,.1.06,0,.22-.09.2a3.29,3.29,0,0,0-3.59,1.3,16.15,16.15,0,0,0-1.62,3c-.16.34-.77.19-.66-.2l0-.09C303.4,172.27,306.81,165.51,311.87,164.83Z" style="fill:#263238"></path><path d="M259.27,157.5c.7.28,1.39.44,2.11.65a3.57,3.57,0,0,0,2.27.26,1.15,1.15,0,0,0,.68-1.21,2.8,2.8,0,0,0-2.11-1.93,4.14,4.14,0,0,0-3,0A1.22,1.22,0,0,0,259.27,157.5Z" style="fill:#263238"></path><path d="M281.25,162.08a20.27,20.27,0,0,1-2.15.5,3.6,3.6,0,0,1-2.29.09,1.13,1.13,0,0,1-.58-1.26,2.8,2.8,0,0,1,2.24-1.76,4.12,4.12,0,0,1,3,.22A1.22,1.22,0,0,1,281.25,162.08Z" style="fill:#263238"></path><path d="M276.78,165.5c0-.09.17.1.16.19-.08,2.17.19,4.67,2.15,5.41.07,0,.06.13,0,.12C276.68,170.87,276.35,167.54,276.78,165.5Z" style="fill:#263238"></path><path d="M278.73,163.24c3.5-.25,3.73,6.77.49,7S275.8,163.44,278.73,163.24Z" style="fill:#263238"></path><path d="M280.12,163.56c.62.38,1.25,1.06,2,1.11s1.48-.7,2-1.43c.06-.07.12,0,.12.08.07,1.34-.4,2.74-1.84,3s-2.29-.93-2.67-2.27C279.66,163.79,279.87,163.41,280.12,163.56Z" style="fill:#263238"></path><path d="M263.92,165c0-.08-.17.11-.16.2.16,2.17,0,4.68-2,5.48-.06,0-.05.13,0,.12C264.21,170.32,264.42,167,263.92,165Z" style="fill:#263238"></path><path d="M261.89,162.77c-3.51-.12-3.49,6.9-.25,7S264.82,162.87,261.89,162.77Z" style="fill:#263238"></path><path d="M260.43,163.24c-.56.37-1.11,1-1.77,1.09s-1.33-.71-1.83-1.43c-.05-.08-.1,0-.1.07,0,1.34.41,2.74,1.7,3s2-.92,2.35-2.26C260.84,163.46,260.65,163.09,260.43,163.24Z" style="fill:#263238"></path><path d="M280.32,184.81c-.48.55-.94,1.29-1.72,1.42a5.67,5.67,0,0,1-2.37-.37c-.07,0-.14.06-.09.12a2.92,2.92,0,0,0,2.85,1,2.32,2.32,0,0,0,1.55-2.05C280.56,184.76,280.39,184.73,280.32,184.81Z" style="fill:#263238"></path><path d="M275.75,180.39a20,20,0,0,0-8.18-.56c-.25-.05-.79-.26-.82-.5v0c0-.08.45-4.54.45-4.54-.62.26-3.76,1.43-3.65.57.9-7.05,1.91-14.89,4.31-21.72a.2.2,0,0,1,.38.09c-.6,6.81-2.4,13.47-3.12,20.3a12.72,12.72,0,0,1,3.49-.8c.23.08-.72,4.78-.69,5.52a12.2,12.2,0,0,1,8.13,1.27C277,180.51,277.09,180.78,275.75,180.39Z" style="fill:#263238"></path><path d="M270.84,183.56c-1.23-.41-2.68-4.74-.5-4.94s7,1.12,8.53,3.89c1.31,2.43-4.8.48-5.87.8C272.11,183.58,271.72,183.85,270.84,183.56Z" style="fill:#263238"></path><path d="M273,183.32c-.2.06-.35.12-.51.16.1-1.38,1.5-3,4.48-2.95a5.63,5.63,0,0,1,1.91,2C280.17,184.94,274.06,183,273,183.32Z" style="fill:#ff9abb"></path><path d="M269.22,180.4a62.44,62.44,0,0,1,7.76.16,11.74,11.74,0,0,0-6.64-1.93C269.45,178.7,269.16,179.48,269.22,180.4Z" style="fill:#fff"></path><path d="M284.36,206.56l6.3,14,16.9-18.71,5.24,5.55s-16.07,29.28-16.23,28l-6.37-12-8.09,8.87-.21-21.41Z" style="fill:#FFC727"></path><path d="M281.41,221.65c.08-3.54.07-7.1.32-10.63,0-.12.2-.19.24,0,.84,3.37.45,16.89.6,20.13l0,0c.34-.39,7.52-7.82,7.59-7.71,1.36,1.89,6,10.62,6.35,11.42,2.54-4.65,13.38-23,16.43-27.44a.13.13,0,0,1,.22.12c-2.21,4.89-16.19,29.11-16.41,29a137.57,137.57,0,0,1-6.66-12.68c-1.2,1.6-8.41,10-8.46,9.44A112.62,112.62,0,0,1,281.41,221.65Z" style="fill:#263238"></path><path d="M328.67,224.15C357.06,265.5,396.41,346,401.49,359.38c3.45,9.09-47.5,28.47-48.92,21.95-1.81-8.35-34.58-113.89-42-152.69C306.42,207.25,321.28,213.38,328.67,224.15Z" style="fill:#f7a9a0"></path><path d="M334.56,318.27a33.46,33.46,0,0,1,2.14,5.55,32.55,32.55,0,0,1,1.23,5.82,33.46,33.46,0,0,1-2.14-5.55A34.4,34.4,0,0,1,334.56,318.27Z" style="fill:#263238"></path><path d="M376.8,427.85c5.47-.23,6.95-5.7,6.95-5.7a11.71,11.71,0,0,0,7.83,1.34c4.69-1.08,5.06-8.9,5.06-8.9a14.37,14.37,0,0,0,8.48.09c4.39-1.48,5.89-9.32,5.89-9.32a12.62,12.62,0,0,0,7.51-4.61c4.73-6.59,0-18.05-2.88-25.36s-18-25.34-20.55-29.07L348,364.61s3.73,36.52,8.37,44.63C360.26,416.08,370.65,428.09,376.8,427.85Z" style="fill:#f7a9a0"></path><path d="M383.53,422.16c-5.9-6.27-9.63-14-13.79-21.4a.15.15,0,0,1,.26-.14c4.05,7.46,9.52,14,13.86,21.29A.21.21,0,0,1,383.53,422.16Z" style="fill:#263238"></path><path d="M396.48,414.7a22.29,22.29,0,0,1-3-5.07q-1.38-2.79-2.67-5.64c-1.72-3.79-3.36-7.62-4.88-11.5-.07-.17.18-.32.26-.14,1.72,3.77,3.5,7.52,5.38,11.23q1.41,2.78,2.87,5.53a26.6,26.6,0,0,1,2.5,5.32A.3.3,0,0,1,396.48,414.7Z" style="fill:#263238"></path><path d="M410.93,405.21c-1.17-1.23-1.76-3.18-2.42-4.71-.75-1.75-1.5-3.49-2.27-5.22-1.54-3.48-3.08-6.95-4.73-10.36-.08-.17.17-.32.26-.14,1.7,3.46,3.44,6.9,5.11,10.37q1.23,2.57,2.44,5.14c.68,1.46,1.69,3.21,1.79,4.85A.11.11,0,0,1,410.93,405.21Z" style="fill:#263238"></path><path d="M353.26,256.14l-39.88-1.87s-3.88-19.69-4.49-30.89c-.81-14.82,4.51-18.6,17.21-5.57C334.6,226.53,353.26,256.14,353.26,256.14Z" style="fill:#FFC727"></path><path d="M326.27,228.64a2.26,2.26,0,1,1-2.26-2.26A2.27,2.27,0,0,1,326.27,228.64Zm-13.56-18.57a2.27,2.27,0,1,0,2.26,2.27A2.27,2.27,0,0,0,312.71,210.07Zm0,33.12a2.16,2.16,0,0,0-1.26.39c.25,1.45.48,2.82.7,4.07a2.1,2.1,0,0,0,.56.07,2.27,2.27,0,0,0,0-4.53Zm22.6,0a2.27,2.27,0,1,0,2.26,2.27A2.27,2.27,0,0,0,335.31,243.19Z" style="fill:#fff"></path><path d="M318.24,254.51c-.43-.1-4.52-.43-4.82-.37-.39-2.32-.76-4.66-1.19-7-.21-1.16-.44-2.32-.69-3.47s-.52-2.74-.76-3.86c0-.18-.26-.15-.24,0,.17,1.5.34,2.61.5,3.9s.3,2.31.49,3.45c.4,2.43.72,5,1.24,7.43a39.72,39.72,0,0,0,5.47,0A.07.07,0,0,0,318.24,254.51Z" style="fill:#263238"></path><path d="M349.39,252.17c-5.79-.68-11.57-1.27-17.38-1.6q-4.36-.25-8.71-.37c-2.9-.07-5.82.15-8.71,0-.16,0-.16.25,0,.25,2.89,0,5.82.32,8.71.45s5.81.26,8.71.42c5.79.32,11.59.62,17.38,1.06C349.55,252.43,349.54,252.18,349.39,252.17Z" style="fill:#263238"></path><path d="M287.27,445.18c0-.22,0-.42,0-.62h0C287.26,444.76,287.27,445,287.27,445.18Z" style="fill:#FFC727"></path></g><g id="freepik--Table--inject-2"><polygon points="44.45 444.73 95.84 444.49 147.23 444.4 250 444.23 352.77 444.4 404.16 444.49 455.55 444.73 404.16 444.98 352.77 445.06 250 445.23 147.23 445.06 95.84 444.98 44.45 444.73" style="fill:#263238"></polygon></g><g id="freepik--speech-bubble-2--inject-2"><path d="M395.69,95.19a36.4,36.4,0,0,1-60.83,23l-18.21,2.68,9.11-15.75a36.41,36.41,0,1,1,69.93-10Z" style="fill:#fff"></path><path d="M395.69,95.19a36.63,36.63,0,0,1-7.35,18.45,41.22,41.22,0,0,1-3.3,3.8,42.29,42.29,0,0,1-3.84,3.25,37,37,0,0,1-18.59,7.23,37.14,37.14,0,0,1-5.06.1,31.44,31.44,0,0,1-5-.53,36.74,36.74,0,0,1-18-8.89l.44.13-18.2,2.79-1.32.21.67-1.17,9.06-15.77,0,.62a36.77,36.77,0,1,1,70.59-10.22Zm0,0A36,36,0,0,0,354.4,55.78a35.91,35.91,0,0,0-15,5.94,37.53,37.53,0,0,0-10.89,11.89A35.87,35.87,0,0,0,323.85,89a36.44,36.44,0,0,0,2.56,15.86l.13.33-.17.29-9.17,15.72-.65-1,18.23-2.56.25,0,.18.17a35.91,35.91,0,0,0,17.44,9,31.44,31.44,0,0,0,4.94.6,34.87,34.87,0,0,0,14.7-2.15,34,34,0,0,0,8.78-4.73,40.67,40.67,0,0,0,3.85-3.21,40.64,40.64,0,0,0,3.31-3.76A36.63,36.63,0,0,0,395.69,95.19Z" style="fill:#263238"></path><circle cx="358.99" cy="91.44" r="19.74" transform="translate(90.37 346.54) rotate(-57.81)" style="fill:#FFC727"></circle><circle cx="358.99" cy="91.44" r="19.74" transform="translate(90.37 346.54) rotate(-57.81)" style="opacity:0.1"></circle><path d="M360,111.15a19.73,19.73,0,1,1,9.46-36.46,17.1,17.1,0,1,0,6.71,7A19.75,19.75,0,0,1,360,111.15Z" style="opacity:0.1"></path><path d="M364.1,90a6.21,6.21,0,0,0-1.78-3,4.74,4.74,0,0,0-3.14-1.1,4.64,4.64,0,0,0-3.17,1,6.7,6.7,0,0,0-2,3,5.39,5.39,0,0,1,1.5-3.46,4.56,4.56,0,0,1,1.68-1.07,5.79,5.79,0,0,1,2-.3,6,6,0,0,1,1.94.37,4.66,4.66,0,0,1,1.66,1.11A5.08,5.08,0,0,1,364.1,90Z" style="fill:#263238"></path><path d="M352.36,87.09a2.78,2.78,0,1,1-2.88-2.67A2.77,2.77,0,0,1,352.36,87.09Z" style="fill:#263238"></path><path d="M345,82.69a19.29,19.29,0,0,1,7.9,3.64A16.69,16.69,0,0,1,348.71,85,17.1,17.1,0,0,1,345,82.69Z" style="fill:#263238"></path><path d="M365.62,87.09a2.78,2.78,0,1,0,2.88-2.67A2.77,2.77,0,0,0,365.62,87.09Z" style="fill:#263238"></path><path d="M373,82.69A16.81,16.81,0,0,1,369.27,85a16.63,16.63,0,0,1-4.16,1.36,17.45,17.45,0,0,1,3.75-2.27A17.14,17.14,0,0,1,373,82.69Z" style="fill:#263238"></path></g><g id="freepik--speech-bubble-1--inject-2"><path d="M140.08,84.66a34.44,34.44,0,0,1,35.55,50.24l6.78,16-16.59-4.6a34.45,34.45,0,1,1-25.74-61.68Z" style="fill:#FFC727"></path><path d="M140.08,84.66A34.7,34.7,0,0,1,158.73,87,40.37,40.37,0,0,1,163,89.12a39,39,0,0,1,3.89,2.75,34.3,34.3,0,0,1,6.57,6.88,33.36,33.36,0,0,1,5.76,13,30.29,30.29,0,0,1,.71,4.74,34.7,34.7,0,0,1-3.86,18.61l0-.43,6.89,16,.49,1.16-1.22-.34L165.65,147l.58-.11A34.86,34.86,0,0,1,136,152.54,35.41,35.41,0,0,1,122.14,145a34.8,34.8,0,0,1,17.94-60.32Zm0,0a34.07,34.07,0,0,0-26.27,47.18,33.93,33.93,0,0,0,9,12.36,35.29,35.29,0,0,0,13.47,7.15,34,34,0,0,0,15.21.57,34.39,34.39,0,0,0,13.91-6.11l.27-.2.31.09,16.58,4.66-.73.82-6.67-16.09-.09-.22.11-.21a34,34,0,0,0,4.08-18.1,29.17,29.17,0,0,0-.63-4.66,32.64,32.64,0,0,0-1.19-4.57,33.53,33.53,0,0,0-4.27-8.39A32.21,32.21,0,0,0,166.77,92a31.16,31.16,0,0,0-8.09-4.9A34.62,34.62,0,0,0,140.08,84.66Z" style="fill:#FFC727"></path><path d="M141.39,124.24V96.15h8.37v28.09Zm0,16.67v-9.43h8.37v9.43Z" style="fill:#fff"></path></g></svg>